<svg width="24" height="24" viewBox="0 0 24 24" fill="none" xmlns="http://www.w3.org/2000/svg">
<path d="M23.6942 11.7156C23.6942 17.6325 19.3095 22.5242 13.6135 23.318C13.0809 23.3919 12.536 23.4304 11.9828 23.4304C11.3444 23.4304 10.7174 23.3795 10.1069 23.281C4.53061 22.383 0.271484 17.5464 0.271484 11.7156C0.271484 5.24543 5.51538 0 11.9837 0C18.452 0 23.6958 5.24543 23.6958 11.7156H23.6942Z" fill="#0171E5"/>
<path d="M13.6137 9.40758V11.9597H16.7699L16.2701 15.3976H13.6137V23.3182C13.0811 23.3921 12.5362 23.4307 11.9831 23.4307C11.3446 23.4307 10.7177 23.3798 10.1071 23.2813V15.3976H7.19629V11.9597H10.1071V8.83707C10.1071 6.89979 11.677 5.32861 13.6145 5.32861V5.33026C13.6203 5.33026 13.6252 5.32861 13.6309 5.32861H16.7707V8.30185H14.7191C14.1094 8.30185 13.6145 8.79684 13.6145 9.40676L13.6137 9.40758Z" fill="white"/>
</svg>
