<svg width="24" height="24" viewBox="0 0 24 24" fill="none" xmlns="http://www.w3.org/2000/svg">
<path d="M11.7912 0H11.7378C5.28432 0 0.0527344 5.23314 0.0527344 11.6885V11.7419C0.0527344 18.1973 5.28432 23.4304 11.7378 23.4304H11.7912C18.2447 23.4304 23.4763 18.1973 23.4763 11.7419V11.6885C23.4763 5.23314 18.2447 0 11.7912 0Z" fill="#0171E5"/>
<path d="M17.6264 6.33646C16.5481 5.84147 15.3927 5.477 14.1838 5.26849C14.1617 5.26439 14.1395 5.27424 14.1289 5.29476C13.9803 5.55909 13.8154 5.90468 13.7005 6.17557C12.4006 5.98102 11.1073 5.98102 9.83363 6.17557C9.71792 5.89811 9.54722 5.55909 9.39787 5.29476C9.38638 5.27506 9.36423 5.26521 9.34289 5.26849C8.13491 5.477 6.97863 5.84147 5.90031 6.33646C5.89128 6.34057 5.88307 6.34713 5.87733 6.35616C3.68458 9.63312 3.08385 12.8296 3.37846 15.9868C3.3801 16.0023 3.38831 16.0171 3.40062 16.0262C4.84741 17.0892 6.24908 17.7344 7.62447 18.1621C7.64663 18.1687 7.66961 18.1604 7.68356 18.1424C8.00853 17.6983 8.29904 17.2296 8.5477 16.7362C8.56247 16.7075 8.54769 16.673 8.51814 16.6615C8.05776 16.4867 7.62036 16.2741 7.19855 16.0327C7.1649 16.013 7.16245 15.9654 7.19282 15.9424C7.28145 15.8759 7.37007 15.807 7.4546 15.7372C7.47019 15.7241 7.49152 15.7216 7.50957 15.7298C10.2776 16.994 13.2746 16.994 16.0098 15.7298C16.0278 15.7208 16.0492 15.7241 16.0647 15.7364C16.1493 15.8062 16.2379 15.8759 16.3274 15.9424C16.3577 15.9654 16.3561 16.013 16.3224 16.0327C15.9015 16.279 15.4632 16.4875 15.002 16.6615C14.9717 16.673 14.9585 16.7075 14.9733 16.737C15.2277 17.2287 15.5174 17.6975 15.8366 18.1424C15.8497 18.1613 15.8735 18.1695 15.8957 18.1629C17.2777 17.7352 18.6793 17.09 20.1261 16.027C20.1384 16.0179 20.1466 16.0032 20.1483 15.9884C20.5011 12.3387 19.5574 9.16851 17.6478 6.35781C17.6428 6.34878 17.6355 6.34139 17.6256 6.33728L17.6264 6.33646ZM8.95964 14.0642C8.12587 14.0642 7.43983 13.2992 7.43983 12.3593C7.43983 11.4194 8.11356 10.6543 8.95964 10.6543C9.80572 10.6543 10.4934 11.4268 10.4795 12.3593C10.4795 13.2992 9.80572 14.0642 8.95964 14.0642ZM14.5802 14.0642C13.7464 14.0642 13.0604 13.2992 13.0604 12.3593C13.0604 11.4194 13.7341 10.6543 14.5802 10.6543C15.4263 10.6543 16.114 11.4268 16.1 12.3593C16.1 13.2992 15.4337 14.0642 14.5802 14.0642Z" fill="white"/>
</svg>
