<svg width="25" height="24" viewBox="0 0 25 24" fill="none" xmlns="http://www.w3.org/2000/svg">
<path d="M12.5861 0H12.5328C6.07926 0 0.847656 5.23314 0.847656 11.6885V11.7419C0.847656 18.1973 6.07926 23.4304 12.5328 23.4304H12.5861C19.0396 23.4304 24.2712 18.1973 24.2712 11.7419V11.6885C24.2712 5.23314 19.0396 0 12.5861 0Z" fill="#0171E5"/>
<path d="M16.1829 4.76709H8.93504C6.93268 4.76709 5.30371 6.39654 5.30371 8.39949V15.0322C5.30371 17.0352 6.93268 18.6646 8.93504 18.6646H16.1829C18.1853 18.6646 19.8143 17.0352 19.8143 15.0322V8.39949C19.8143 6.39654 18.1853 4.76709 16.1829 4.76709ZM6.58473 8.39949C6.58473 7.10332 7.63925 6.04849 8.93504 6.04849H16.1829C17.4787 6.04849 18.5333 7.10332 18.5333 8.39949V15.0322C18.5333 16.3284 17.4787 17.3832 16.1829 17.3832H8.93504C7.63925 17.3832 6.58473 16.3284 6.58473 15.0322V8.39949Z" fill="white"/>
<path d="M12.5584 15.0939C14.4205 15.0939 15.9362 13.5786 15.9362 11.7152C15.9362 9.85177 14.4213 8.33643 12.5584 8.33643C10.6956 8.33643 9.18066 9.85177 9.18066 11.7152C9.18066 13.5786 10.6956 15.0939 12.5584 15.0939ZM12.5584 9.61864C13.7147 9.61864 14.6552 10.5594 14.6552 11.716C14.6552 12.8726 13.7147 13.8133 12.5584 13.8133C11.4021 13.8133 10.4617 12.8726 10.4617 11.716C10.4617 10.5594 11.4021 9.61864 12.5584 9.61864Z" fill="white"/>
<path d="M16.249 8.88224C16.7504 8.88224 17.159 8.47426 17.159 7.97188C17.159 7.4695 16.7512 7.06152 16.249 7.06152C15.7467 7.06152 15.3389 7.4695 15.3389 7.97188C15.3389 8.47426 15.7467 8.88224 16.249 8.88224Z" fill="white"/>
</svg>
