<svg width="24" height="24" viewBox="0 0 24 24" fill="none" xmlns="http://www.w3.org/2000/svg">
<path d="M11.7384 0H11.6851C5.23161 0 0 5.23314 0 11.6885V11.7419C0 18.1973 5.23161 23.4304 11.6851 23.4304H11.7384C18.1919 23.4304 23.4236 18.1973 23.4236 11.7419V11.6885C23.4236 5.23314 18.1919 0 11.7384 0Z" fill="#0171E5"/>
<path d="M5.58603 7.78797C5.27747 7.50149 5.12402 7.14687 5.12402 6.72494C5.12402 6.303 5.27829 5.93278 5.58603 5.64547C5.8946 5.35899 6.29179 5.21533 6.77843 5.21533C7.26507 5.21533 7.64667 5.35899 7.95441 5.64547C8.26297 5.93196 8.41642 6.29233 8.41642 6.72494C8.41642 7.15754 8.26215 7.50149 7.95441 7.78797C7.64585 8.07446 7.2544 8.21812 6.77843 8.21812C6.30246 8.21812 5.8946 8.07446 5.58603 7.78797ZM8.15711 9.43138V18.2148H5.38252V9.43138H8.15711Z" fill="#FEFFFC"/>
<path d="M17.3932 10.299C17.998 10.9557 18.3 11.8571 18.3 13.0047V18.0596H15.665V13.3609C15.665 12.7822 15.5148 12.3323 15.2153 12.0122C14.9157 11.6921 14.512 11.5312 14.0064 11.5312C13.5009 11.5312 13.0972 11.6912 12.7976 12.0122C12.4981 12.3323 12.3479 12.7822 12.3479 13.3609V18.0596H9.69727V9.40672H12.3479V10.5543C12.6163 10.1718 12.9782 9.86971 13.4328 9.64725C13.8875 9.42479 14.3987 9.31396 14.9674 9.31396C15.9801 9.31396 16.7892 9.64232 17.3932 10.2982V10.299Z" fill="#FEFFFC"/>
</svg>
