<svg width="442" height="477" viewBox="0 0 442 477" fill="none" xmlns="http://www.w3.org/2000/svg">
<path d="M397.685 313.457C441.241 394.729 453.595 468.017 389.025 468.017C240.014 468.017 8.08496 191.392 8.08496 55.7736C8.08496 -9.60359 76.4006 0.334219 147.543 43.923" stroke="url(#paint0_linear_2093_108)" stroke-width="6" stroke-miterlimit="10" stroke-linecap="round"/>
<path d="M265.335 339.989C254.485 340.002 243.975 336.197 235.646 329.241L180.927 283.628C156.811 263.576 141.242 235.082 137.392 203.95L127.921 128.128C125.377 107.739 136.782 87.851 155.655 79.7469L247.074 40.5605C252.848 38.0991 259.06 36.8303 265.336 36.8303C271.613 36.8303 277.824 38.0991 283.598 40.5605L375.018 79.755C393.899 87.8632 405.317 107.762 402.743 128.152L393.281 203.958C389.43 235.085 373.863 263.573 349.751 283.622L295.008 329.249C286.68 336.195 276.179 339.996 265.335 339.989ZM265.335 67.7371C263.242 67.7361 261.171 68.1596 259.247 68.982L167.846 108.162C164.772 109.495 162.211 111.785 160.544 114.692C158.877 117.599 158.193 120.966 158.595 124.293L168.065 200.115C170.956 223.459 182.632 244.822 200.716 259.857L255.442 305.467C258.213 307.797 261.717 309.074 265.336 309.074C268.956 309.074 272.459 307.797 275.23 305.467L329.965 259.857C348.043 244.812 359.716 223.445 362.611 200.099L372.075 124.285C372.484 120.957 371.803 117.586 370.135 114.678C368.467 111.77 365.901 109.481 362.823 108.154L271.419 68.9759C269.495 68.1577 267.426 67.7364 265.335 67.7371Z" fill="url(#paint1_linear_2093_108)"/>
<path d="M264.601 223.939C262.471 223.941 260.361 223.521 258.393 222.704C256.426 221.888 254.638 220.691 253.134 219.181L219.317 185.353C217.505 183.541 216.487 181.083 216.487 178.52C216.487 175.957 217.505 173.5 219.317 171.687C221.128 169.875 223.585 168.857 226.147 168.857C228.709 168.857 231.166 169.875 232.978 171.687L264.14 202.861L310.264 133.652C311.685 131.52 313.895 130.04 316.407 129.537C318.92 129.034 321.528 129.551 323.66 130.972C325.792 132.394 327.272 134.604 327.774 137.117C328.277 139.63 327.76 142.24 326.339 144.372L278.132 216.704C276.803 218.707 275.044 220.388 272.983 221.626C270.923 222.864 268.612 223.627 266.22 223.86C265.679 223.913 265.138 223.939 264.601 223.939Z" fill="url(#paint2_linear_2093_108)"/>
<defs>
<linearGradient id="paint0_linear_2093_108" x1="7.10087" y1="238.502" x2="434.898" y2="238.502" gradientUnits="userSpaceOnUse">
<stop stop-color="white"/>
<stop offset="1" stop-color="#04DBFE"/>
</linearGradient>
<linearGradient id="paint1_linear_2093_108" x1="64.1723" y1="292.174" x2="425.316" y2="96.7388" gradientUnits="userSpaceOnUse">
<stop stop-color="white"/>
<stop offset="0.62" stop-color="#04DBFE"/>
<stop offset="0.89" stop-color="#9FCAFC"/>
<stop offset="1" stop-color="white"/>
</linearGradient>
<linearGradient id="paint2_linear_2093_108" x1="65.3459" y1="294.34" x2="426.49" y2="98.907" gradientUnits="userSpaceOnUse">
<stop stop-color="white"/>
<stop offset="0.62" stop-color="#04DBFE"/>
<stop offset="0.89" stop-color="#9FCAFC"/>
<stop offset="1" stop-color="white"/>
</linearGradient>
</defs>
</svg>
