<svg width="24" height="24" viewBox="0 0 24 24" fill="none" xmlns="http://www.w3.org/2000/svg">
<path d="M23.8465 11.7156C23.8465 17.6325 19.4619 22.5242 13.7658 23.318C13.2332 23.3919 12.6883 23.4304 12.1352 23.4304C11.4967 23.4304 10.8698 23.3795 10.2592 23.281C4.68295 22.383 0.423828 17.5464 0.423828 11.7156C0.423828 5.24543 5.66772 0 12.136 0C18.6043 0 23.8482 5.24543 23.8482 11.7156H23.8465Z" fill="#0171E5"/>
<path d="M5.1733 5.16699L10.5747 12.3908L5.13965 18.2642H6.36323L11.1221 13.1222L14.9668 18.2642H19.1299L13.4248 10.6341L18.4841 5.16699H17.2605L12.8783 9.90266L9.33723 5.16699H5.17411H5.1733ZM6.97213 6.06832H8.88423L17.3294 17.3628H15.4173L6.97213 6.06832Z" fill="white"/>
</svg>
