<svg width="25" height="24" viewBox="0 0 25 24" fill="none" xmlns="http://www.w3.org/2000/svg">
<path d="M24.0533 11.682C24.0533 5.2302 18.8247 0 12.3748 0C5.92495 0 0.696289 5.2302 0.696289 11.682C0.696289 18.1337 5.92495 23.3639 12.3748 23.3639C18.8247 23.3639 24.0533 18.1337 24.0533 11.682Z" fill="#0171E5"/>
<path d="M19.7284 9.26097C19.6365 8.3736 19.4387 7.39265 18.7108 6.87713C18.147 6.47736 17.406 6.46259 16.7142 6.46341C15.2518 6.46341 13.7886 6.46587 12.3262 6.46669C10.9196 6.46834 9.51307 6.46915 8.10649 6.4708C7.51891 6.4708 6.94774 6.42565 6.40202 6.68012C5.93343 6.89848 5.5666 7.31384 5.34585 7.776C5.03975 8.41875 4.97575 9.14687 4.93882 9.85776C4.8707 11.1523 4.87809 12.4501 4.95933 13.7438C5.01924 14.6878 5.17106 15.7312 5.90061 16.3329C6.54727 16.8656 7.45982 16.8919 8.29851 16.8927C10.9607 16.8952 13.6237 16.8976 16.2866 16.8993C16.628 16.9001 16.9842 16.8935 17.3321 16.8558C18.0165 16.7819 18.6689 16.5857 19.1088 16.0784C19.5528 15.567 19.6669 14.8553 19.7341 14.1813C19.8983 12.5461 19.8966 10.8953 19.7284 9.26097ZM10.7867 13.9737V9.38903L14.7553 11.6809L10.7867 13.9737Z" fill="white"/>
</svg>
